# xmcd CD database file
#
# Track frame offsets:
#	150
#	8482
#	28549
#	46355
#	59896
#	71470
#	90647
#	114191
#	128598
#	143110
#	152392
#
# Disc length: 2074 seconds
#
# Revision: 0
# Processed by: cddbd v1.5.1PL0 Copyright (c) Steve Scherf et al.
# Submitted via: CDex 1.51
#
DISCID=8308180b
DTITLE=Katrina Geenen - High and Low
DYEAR=2002
DGENRE=Jazz
TTITLE0=Small Tragedy
TTITLE1=High and Low
TTITLE2=Accept My Love
TTITLE3=A Billion for Your Thoughts
TTITLE4=Impossible Love
TTITLE5=Anybody, Any Face
TTITLE6=Deep
TTITLE7=Deconstructing Me
TTITLE8=Resurrection
TTITLE9=My Man Don't Mind Man
TTITLE10=Small Tragedy - Final
EXTD=YEAR: 2002
EXTT0=
EXTT1=
EXTT2=
EXTT3=
EXTT4=
EXTT5=
EXTT6=
EXTT7=
EXTT8=
EXTT9=
EXTT10=
PLAYORDER=
